<?xml version="1.0" encoding="UTF-8" standalone="no" ?>
<!DOCTYPE svg PUBLIC "-//W3C//DTD SVG 1.1//EN" "http://www.w3.org/Graphics/SVG/1.1/DTD/svg11.dtd">
<svg xmlns="http://www.w3.org/2000/svg" xmlns:xlink="http://www.w3.org/1999/xlink" version="1.1" width="1080" height="1080" viewBox="0 0 1080 1080" xml:space="preserve">
<desc>Created with Fabric.js 5.2.4</desc>
<defs>
</defs>
<g transform="matrix(1 0 0 1 540 540)" id="05c3045c-f485-4047-9953-630f850d34be"  >
<rect style="stroke: none; stroke-width: 1; stroke-dasharray: none; stroke-linecap: butt; stroke-dashoffset: 0; stroke-linejoin: miter; stroke-miterlimit: 4; fill: rgb(255,255,255); fill-rule: nonzero; opacity: 1; visibility: hidden;" vector-effect="non-scaling-stroke"  x="-540" y="-540" rx="0" ry="0" width="1080" height="1080" />
</g>
<g transform="matrix(1 0 0 1 540 540)" id="c74a98a3-6d27-492f-ad57-ce019f63ade0"  >
</g>
<g transform="matrix(1.41 0 0 1.41 540 540)"  >
<g style="" vector-effect="non-scaling-stroke"   >
		<g transform="matrix(3.23 0 0 3.23 0 0)"  >
<path style="stroke: none; stroke-width: 1; stroke-dasharray: none; stroke-linecap: butt; stroke-dashoffset: 0; stroke-linejoin: miter; stroke-miterlimit: 4; fill: rgb(255,0,0); fill-rule: nonzero; opacity: 1;" vector-effect="non-scaling-stroke"  transform=" translate(-117.33, -82.67)" d="M 229.763 25.817 C 227.064 15.655 219.113 7.652000000000001 209.01500000000001 4.936 C 190.716 0 117.333 0 117.333 0 C 117.333 0 43.951 0 25.651 4.936 C 15.553 7.652 7.6 15.655 4.903 25.817 C 0 44.236 0 82.667 0 82.667 C 0 82.667 0 121.096 4.903 139.517 C 7.6 149.68 15.553 157.681 25.65 160.4 C 43.95 165.334 117.332 165.334 117.332 165.334 C 117.332 165.334 190.71499999999997 165.334 209.014 160.4 C 219.11200000000002 157.68200000000002 227.06300000000002 149.68 229.762 139.518 C 234.666 121.09700000000001 234.666 82.668 234.666 82.668 C 234.666 82.668 234.666 44.23700000000001 229.762 25.818000000000005" stroke-linecap="round" />
</g>
		<g transform="matrix(3.23 0 0 3.23 21.5 0)"  >
<path style="stroke: none; stroke-width: 1; stroke-dasharray: none; stroke-linecap: butt; stroke-dashoffset: 0; stroke-linejoin: miter; stroke-miterlimit: 4; fill: rgb(255,255,255); fill-rule: nonzero; opacity: 1;" vector-effect="non-scaling-stroke"  transform=" translate(-124, -82.67)" d="M 93.333 117.559 L 154.666 82.669 L 93.333 47.775 z" stroke-linecap="round" />
</g>
</g>
</g>
</svg>